<?xml version="1.0" encoding="utf-8"?>
<!-- Generator: Adobe Illustrator 16.0.0, SVG Export Plug-In . SVG Version: 6.00 Build 0)  -->
<!DOCTYPE svg PUBLIC "-//W3C//DTD SVG 1.1//EN" "http://www.w3.org/Graphics/SVG/1.1/DTD/svg11.dtd">
<svg version="1.1" id="Text" xmlns="http://www.w3.org/2000/svg" xmlns:xlink="http://www.w3.org/1999/xlink" x="0px" y="0px"
	 width="340.16px" height="56.689px" viewBox="0 0 340.16 56.689" enable-background="new 0 0 340.16 56.689" xml:space="preserve">
<g>
	<path fill="#495D78" d="M7.463,17.041l1.055,0.728l-0.809,3.322l0.281,8.543v3.544c0,3.735-0.352,7.934-1.055,12.595v0.222
		l0.527,0.475h4.746l2.637-0.695l0.527,0.695c0,1.436-3.258,2.152-9.773,2.152c-0.703,0-1.055-0.316-1.055-0.949H4.299
		c1.406-3.271,2.109-8.101,2.109-14.493L6.127,17.991C6.314,17.357,6.76,17.041,7.463,17.041z"/>
	<path fill="#495D78" d="M30.821,12.484c1.922,0.042,2.789,10.115,2.602,30.22l0.809,7.594l-1.336,0.222h-0.527l-0.773-0.695v-8.796
		l-0.281-3.545h-0.246c-4.219,0.465-6.328,1.329-6.328,2.596c-1.055,5.632-1.758,8.479-2.109,8.543h-1.055l-1.055-0.949
		c0.867-6.012,2.273-13.132,4.219-21.36C26.356,16.862,28.383,12.253,30.821,12.484z M25.512,36.059l0.809,0.696
		c3.516-0.718,5.273-1.266,5.273-1.646v-4.272l0.246-3.101l-0.246-9.018c-0.516-1.897-1.043-2.848-1.582-2.848
		C28.887,15.871,27.387,22.599,25.512,36.059z"/>
	<path fill="#495D78" d="M57.638,14.004c0.891,0.485,1.336,1.118,1.336,1.897h0.246c1.617-0.906,3.117-1.455,4.5-1.646
		c1.5,0,2.461,1.023,2.883,3.069c0,1.287-1.313,4.292-3.938,9.018v0.252l2.355-0.252c1.313,0,2.285,1.265,2.918,3.796
		c0,3.251-1.852,7.523-5.555,12.817c-2.25,2.658-4.535,5.031-6.855,7.119h-0.773c-0.539-0.147-0.809-0.622-0.809-1.425
		c1.055-2.614,1.582-8.151,1.582-16.612l-0.773-0.697v-0.253l0.773-1.899c0-10.124,0.445-15.186,1.336-15.186L57.638,14.004
		L57.638,14.004z M57.392,32.514v0.729L57.11,45.108h0.281c2.227,0,4.863-3.723,7.91-11.17l0.527-1.898
		c0-2.533-0.703-3.798-2.109-3.798C59.501,29.614,57.392,31.037,57.392,32.514z M57.638,19.7l-0.246,7.371v1.171h0.773
		c4.219-3.838,6.328-7.478,6.328-10.915c-0.328-0.718-0.68-1.107-1.055-1.171C61.657,16.156,59.724,17.337,57.638,19.7z"/>
	<path fill="#495D78" d="M78.482,21.692h0.264c0.973,0,1.676,0.713,2.109,2.137c3.34,2.342,5.01,6.455,5.01,12.341
		c0,5.928-1.758,9.883-5.273,11.865l-2.637,0.236c-2.895,0-4.828-2.609-5.801-7.831v-2.848c1.23-8.863,2.549-13.292,3.955-13.292
		C76.109,23.817,76.9,22.948,78.482,21.692z M73.472,38.068l0.264,0.237v0.237l-0.264,0.712c0.527,5.063,2.109,7.594,4.746,7.594
		c4.043,0,6.064-3.718,6.064-11.152v-0.949c-0.926-6.806-2.771-10.207-5.537-10.207C76.437,24.54,74.679,29.047,73.472,38.068z"/>
	<path fill="#495D78" d="M95.2,23.155c1.288,0.168,1.943,0.354,1.966,0.559l0.042,0.384c-1.512,1.064-2.126,2.879-1.844,5.455
		c-0.631,7.333-0.738,12.906-0.318,16.723l0.659,1.093l0.042,0.383l-1.229,0.912c-0.757,0.083-1.339-0.312-1.746-1.18
		c0.32-0.347,0.503-5.988,0.546-16.93c0.394-4.699,0.851-7.078,1.372-7.134l0.532-0.06L95.2,23.155z"/>
	<path fill="#495D78" d="M117.2,25.015l0.773,0.252v0.697c0,0.484-0.352,0.727-1.055,0.727v0.222l-1.055-0.222
		c-3.984,0.466-6.094,0.855-6.328,1.172l0.281,7.121v6.172l0.246,1.424l-0.246,1.202v2.595c0,0.76-0.445,1.393-1.336,1.897
		c-0.797-0.295-1.23-0.61-1.301-0.948v-0.696c0.703-0.843,1.055-1.562,1.055-2.151v-0.948l0.246-4.271l-0.246-1.171l0.246-1.424
		c-0.398-5.866-0.832-8.798-1.301-8.798h-1.336l-4.219,0.253c-0.867-0.21-1.301-0.453-1.301-0.728v-0.697l0.773-0.727l3.164,0.475
		c2.109-0.146,3.516-0.465,4.219-0.949l1.582,0.474L117.2,25.015z"/>
	<path fill="#495D78" d="M126.847,15.175c0.867,0.211,1.301,0.454,1.301,0.729v0.695c0,0.485-2.027,1.076-6.082,1.772l-0.492,11.517
		v1.202c0,0.316,0.258,0.476,0.773,0.476l5.027-0.476l0.246,0.222v0.254c0,0.634-2.016,1.267-6.047,1.899l-1.055,10.442v0.475
		c0,1.729,0.703,2.595,2.109,2.595l7.102-2.595l0.457,1.424c0.234,0.232-2.555,1.255-8.367,3.069c-1.711,0-2.848-1.582-3.41-4.746
		l1.301-10.189l-0.773-1.201c0.703-1.204,1.055-2.153,1.055-2.85V20.65c0-1.581-0.176-2.372-0.527-2.372
		C119.464,17.01,121.925,15.975,126.847,15.175z"/>
	<path fill="#495D78" d="M159.583,18.472c1.737,0.037,2.521,8.61,2.351,25.726l0.731,6.465l-1.207,0.188h-0.477l-0.699-0.593v-7.487
		l-0.254-3.017h-0.223c-3.813,0.395-5.719,1.131-5.719,2.208c-0.954,4.795-1.589,7.22-1.907,7.271h-0.954l-0.953-0.808
		c0.784-5.118,2.055-11.179,3.814-18.184C155.547,22.199,157.379,18.275,159.583,18.472z M154.785,38.541l0.731,0.593
		c3.177-0.61,4.767-1.078,4.767-1.4v-3.637l0.222-2.643l-0.222-7.674c-0.466-1.617-0.943-2.425-1.431-2.425
		C157.835,21.355,156.479,27.082,154.785,38.541z"/>
	<path fill="#495D78" d="M186.352,19.066l1.056,0.696l3.444-0.221c3.681,0.337,5.521,1.761,5.521,4.271
		c0,2.952-3.164,6.75-9.492,11.393c-0.353,0.802-0.526,2.226-0.526,4.271v5.442l0.28,1.424c-0.233,0.991-0.68,1.708-1.336,2.151
		l-0.772-0.729h-0.281l0.809-20.158v-3.1c0-0.696-0.352-1.329-1.055-1.898c0.516-0.822,0.773-1.687,0.773-2.594L186.352,19.066z
		 M186.633,24.509v8.544h0.773c4.219-3.04,6.598-5.887,7.137-8.544c0-2.362-1.324-3.543-3.973-3.543
		C187.945,20.965,186.633,22.145,186.633,24.509z"/>
	<path fill="#495D78" d="M209.111,12.484c1.923,0.042,2.789,10.115,2.603,30.22l0.81,7.594l-1.336,0.222h-0.527l-0.773-0.695v-8.796
		l-0.281-3.545h-0.246c-4.219,0.465-6.327,1.329-6.327,2.596c-1.056,5.632-1.759,8.479-2.109,8.543h-1.055l-1.056-0.949
		c0.867-6.012,2.273-13.132,4.22-21.36C204.646,16.862,206.675,12.253,209.111,12.484z M203.805,36.059l0.809,0.696
		c3.516-0.718,5.273-1.266,5.273-1.646v-4.272l0.245-3.101l-0.245-9.018c-0.517-1.897-1.044-2.848-1.582-2.848
		C207.18,15.871,205.68,22.599,203.805,36.059z"/>
	<path fill="#495D78" d="M220.552,19.066l1.056,0.696l3.444-0.221c3.681,0.337,5.521,1.761,5.521,4.271
		c0,2.952-3.164,6.75-9.492,11.393c-0.352,0.802-0.527,2.226-0.527,4.271v5.442l0.281,1.424c-0.234,0.991-0.68,1.708-1.336,2.151
		l-0.773-0.729h-0.281l0.81-20.158v-3.1c0-0.696-0.353-1.329-1.055-1.898c0.516-0.822,0.772-1.687,0.772-2.594L220.552,19.066z
		 M220.833,24.509v8.544h0.772c4.22-3.04,6.599-5.887,7.138-8.544c0-2.362-1.324-3.543-3.974-3.543
		C222.146,20.965,220.833,22.145,220.833,24.509z"/>
	<path fill="#495D78" d="M238.531,20.792c1.242,0.339,1.863,0.621,1.863,0.847v0.424c-1.595,0.979-2.392,2.89-2.392,5.733
		c-1.405,7.929-2.108,14.003-2.108,18.22l0.526,1.271v0.423l-1.301,0.848c-0.75,0-1.277-0.499-1.582-1.497
		c0.353-0.339,1.137-6.478,2.354-18.418c0.892-5.083,1.594-7.625,2.109-7.625h0.527v-0.225H238.531z"/>
	<path fill="#495D78" d="M247.123,17.041l1.055,0.728l-0.809,3.322l0.281,8.542v3.544c0,3.735-0.353,7.933-1.055,12.595v0.222
		l0.526,0.475h4.746l2.637-0.695l0.527,0.695c0,1.436-3.259,2.152-9.773,2.152c-0.702,0-1.055-0.316-1.055-0.949h-0.246
		c1.405-3.271,2.108-8.101,2.108-14.493l-0.28-15.188C245.975,17.357,246.42,17.041,247.123,17.041z"/>
	<path fill="#495D78" d="M264.293,17.041l1.055,0.728l-0.809,3.322l0.281,8.542v3.544c0,3.735-0.353,7.933-1.055,12.595v0.222
		l0.526,0.475h4.746l2.637-0.695l0.527,0.695c0,1.436-3.259,2.152-9.772,2.152c-0.703,0-1.056-0.316-1.056-0.949h-0.246
		c1.406-3.271,2.108-8.101,2.108-14.493l-0.28-15.188C263.145,17.357,263.59,17.041,264.293,17.041z"/>
	<path fill="#495D78" d="M284.118,21.692h0.264c0.974,0,1.677,0.713,2.109,2.137c3.34,2.342,5.01,6.455,5.01,12.341
		c0,5.928-1.758,9.883-5.272,11.865l-2.638,0.236c-2.895,0-4.827-2.609-5.801-7.831v-2.848c1.229-8.863,2.549-13.292,3.955-13.292
		C281.745,23.817,282.536,22.948,284.118,21.692z M279.107,38.068l0.265,0.237v0.237l-0.265,0.712
		c0.527,5.063,2.109,7.594,4.746,7.594c4.043,0,6.064-3.718,6.064-11.152v-0.949c-0.926-6.806-2.771-10.207-5.537-10.207
		C282.073,24.54,280.314,29.047,279.107,38.068z"/>
	<path fill="#495D78" d="M310.48,14.827c0.867,0,1.302,0.791,1.302,2.373l-0.527,1.424v7.12l1.336,18.291l-0.28,0.948l0.526,2.849
		c-0.328,0.717-0.68,1.106-1.055,1.17h-0.773c-0.655,0-1.711-2.373-3.164-7.119c-4.313-10.739-6.866-16.275-7.663-16.613
		c-0.47,0-0.82,2.688-1.056,8.069l0.281,3.323l-0.281,2.151l0.526,7.341l-0.772,0.948h-0.28c-0.914,0-1.441-0.23-1.582-0.694
		l0.526-6.898l-0.246-0.221l0.246-1.203v-9.969c0-1.898,0.353-3.321,1.056-4.271v-0.475l-1.056-1.17v-0.729
		c0.353-0.633,0.879-0.949,1.582-0.949c0.772,0,2.272,2.531,4.5,7.594c1.056,1.856,2.638,5.898,4.746,12.123l2.108,3.797h0.246
		v-2.627l-1.301-21.106l0.246-3.322l-0.246-1.202C309.544,15.311,309.896,14.996,310.48,14.827z"/>
	<path fill="#495D78" d="M334.033,13.292c0.621,0,1.676,0.554,3.164,1.661v0.948h-0.527v0.237c-1.418-0.791-2.561-1.187-3.428-1.187
		h-1.318c-3.621,1.803-5.467,6.628-5.537,14.474l4.219,13.767l0.265,1.188c0,3.153-2.021,5.764-6.063,7.831l-1.847,0.475
		c-2.637-0.675-3.955-1.86-3.955-3.56c0.224-0.791,0.486-1.188,0.791-1.188h0.527c0.586,2.058,1.2,3.085,1.846,3.085
		c4.031,0,6.315-2.215,6.854-6.645v-1.188l-3.69-11.867l-0.526-4.271c0.819-8.406,3.28-12.915,7.383-13.525L334.033,13.292z"/>
</g>
<g>
	<path fill="#495D78" d="M238.292,8.495h1.084l1.509,1.781c0,0.793-0.629,1.527-1.886,2.206c-1.006-0.396-1.744-1.131-2.215-2.206
		L238.292,8.495z"/>
</g>
<g>
	<path fill="#495D78" d="M164.939,13.49c-0.062,0.271-0.477,0.632-1.246,1.082c-6.72-2.499-9.97-4.226-9.753-5.18l0.047-0.204
		c0.066-0.292,0.29-0.392,0.662-0.299c3.433,1.915,5.942,3.067,7.527,3.458l2.144,0.313l0.442,0.787L164.939,13.49z"/>
</g>
<g>
	<path fill="#54697F" d="M93.999,11.587l0.817-0.154c1.125-0.21,4.152,1.588,9.077,5.396l1.806,0.605l0.139,0.74l-1.598,0.504
		c-2.723,0.511-4.283-0.285-4.678-2.39c-2.514-1.775-4.084-2.63-4.711-2.563l-0.435,0.082c-1.49,1.08-3.715,4.246-6.68,9.5
		l-1.532,0.85l-0.38,0.07l-0.171-0.912C90.2,15.687,92.983,11.779,93.999,11.587z"/>
</g>
</svg>
